# xmcd
#
# Track frame offsets:
#	150
#	13519
#	27413
#	40603
#	55755
#	67297
#	78244
#	91224
#	105586
#	118895
#	133274
#	146276
#	161112
#	183613
#	198163
#	212295
#	229622
#	243149
#	258316
#	272500
#
# Disc length: 3795
#
# Revision: 1
# Processed by: cddbd v1.5.1PL0 Copyright (c) Steve Scherf et al.
# Submitted via: EasyCDDAExtractor 4.6.0.1
# Normalized: r0:DSETVAR1
#
DISCID=0d0ed114
DTITLE=Various Artist - Superhits Of Country [CD4]
DYEAR=1900
DGENRE=
TTITLE0=T. Graham Brown - Brilliant Conversationalist
TTITLE1=The Gatlin Brothers - Night Time Magic
TTITLE2=Freddy Weller - She Loves Me Right Out Of My Mind
TTITLE3=Johnny Rodriguez - Desperado
TTITLE4=Mel McDaniel - Stand Up
TTITLE5=Eddy Raven - I Got Mexico
TTITLE6=Jerry Wallace - In The Misty Moonlight
TTITLE7=Lee Greenwood - I.O.U.
TTITLE8=Tanya Tucker - The Man That Turned My Mama On
TTITLE9=T. Graham Brown - Hell Or High Water
TTITLE10=Hank Thompson - Wild Side Of Life
TTITLE11=The Bellamy Brothers - Let You Love Flow
TTITLE12=Ed Bruce - The Last Cowboy Song
TTITLE13=Frankie Laine - Mule Train
TTITLE14=Stonewall Jackson - Don't Be Angry
TTITLE15=Eddy Raven - Joe Sure Knows How To Live
TTITLE16=Lee Greenwood - Hearts Aren't Made To Break
TTITLE17=The Bellamy Brothers - Dancin' Cowboys
TTITLE18=Michael Johnson - Bluer Than Blue
TTITLE19=Jerry Wallace - To Get To You
EXTD=
EXTT0=
EXTT1=
EXTT2=
EXTT3=
EXTT4=
EXTT5=
EXTT6=
EXTT7=
EXTT8=
EXTT9=
EXTT10=
EXTT11=
EXTT12=
EXTT13=
EXTT14=
EXTT15=
EXTT16=
EXTT17=
EXTT18=
EXTT19=
PLAYORDER=
